# xmcd CD database file
#
# Track frame offsets:
#	150
#	18940
#	39985
#	82076
#	106204
#	142792
#	177616
#	199435
#
# Disc length: 3014 seconds
#
# Revision: 0
# Processed by: cddbd v1.5.2PL0 Copyright (c) Steve Scherf et al.
# Submitted via: CDex 1.70beta2
#
DISCID=660bc408
DTITLE=Dan Singer - Live at the Den
DYEAR=2003
DGENRE=Blues
TTITLE0=Ram Rod Daddy
TTITLE1=Groove Me
TTITLE2=Bayou Medley
TTITLE3=300 Pounds
TTITLE4=Help Me
TTITLE5=Cissy Strut
TTITLE6=Steppin' Stone
TTITLE7=Can't Get Next To You
EXTD=YEAR: 2003
EXTT0=
EXTT1=
EXTT2=
EXTT3=
EXTT4=
EXTT5=
EXTT6=
EXTT7=
PLAYORDER=
